<?xml version="1.0" standalone="no"?>
<!DOCTYPE svg PUBLIC "-//W3C//DTD SVG 20010904//EN"
 "http://www.w3.org/TR/2001/REC-SVG-20010904/DTD/svg10.dtd">
<svg version="1.0" xmlns="http://www.w3.org/2000/svg"
 width="260.000000pt" height="260.000000pt" viewBox="0 0 260.000000 260.000000"
 preserveAspectRatio="xMidYMid meet">
<metadata>
Created by potrace 1.11, written by Peter Selinger 2001-2013
</metadata>
<g transform="translate(0.000000,260.000000) scale(0.100000,-0.100000)"
fill="#000000" stroke="none">
<path d="M823 1617 c-7 -11 16 -27 40 -27 16 0 17 -17 17 -214 l0 -214 -30
-11 c-58 -20 -33 -31 71 -31 74 0 100 3 97 12 -3 7 -19 16 -36 20 l-32 9 0 77
0 77 59 1 c77 1 146 35 172 84 l19 35 0 -62 c0 -174 96 -267 268 -259 91 4
112 16 112 66 0 79 -19 91 -45 28 -20 -51 -29 -58 -77 -58 -114 0 -192 96
-187 229 5 129 66 207 165 212 63 3 72 0 80 -23 18 -56 36 -90 44 -82 6 6 11
34 13 64 4 53 3 56 -26 68 -16 6 -61 12 -101 12 -113 -1 -191 -48 -226 -137
-19 -47 -19 -48 -20 -15 0 50 -27 99 -69 124 -32 21 -49 23 -169 24 -73 0
-136 -4 -139 -9z m241 -41 c42 -21 55 -47 56 -102 0 -44 -5 -57 -29 -83 -16
-17 -37 -31 -48 -32 -10 -1 -35 -2 -55 -4 l-38 -3 0 119 0 119 44 0 c24 0 56
-6 70 -14z"/>
</g>
</svg>
